<mxfile host="app.diagrams.net" modified="2020-06-24T08:32:00.088Z" agent="5.0 (Macintosh; Intel Mac OS X 10_15_5) AppleWebKit/537.36 (KHTML, like Gecko) Chrome/83.0.4103.106 Safari/537.36" etag="bt6JQ1oyK7w1rj3xRrvV" version="13.3.1" type="github">
  <diagram id="q--ouzhMAZiNBSOCf1zu" name="Page-1">
    <mxGraphModel dx="911" dy="591" grid="1" gridSize="10" guides="1" tooltips="1" connect="1" arrows="1" fold="1" page="1" pageScale="1" pageWidth="827" pageHeight="1169" math="0" shadow="0">
      <root>
        <mxCell id="0" />
        <mxCell id="1" parent="0" />
        <mxCell id="ViYZggs9jCBp6FODxLy4-1" value="" style="rounded=1;whiteSpace=wrap;html=1;dashed=1;fillColor=#d5e8d4;strokeColor=#82b366;" vertex="1" parent="1">
          <mxGeometry x="140" y="490" width="270" height="120" as="geometry" />
        </mxCell>
        <mxCell id="ViYZggs9jCBp6FODxLy4-2" value="" style="edgeStyle=orthogonalEdgeStyle;rounded=0;orthogonalLoop=1;jettySize=auto;html=1;startArrow=classic;startFill=1;" edge="1" parent="1" source="ViYZggs9jCBp6FODxLy4-3" target="ViYZggs9jCBp6FODxLy4-1">
          <mxGeometry relative="1" as="geometry">
            <Array as="points">
              <mxPoint x="270" y="470" />
              <mxPoint x="270" y="470" />
            </Array>
          </mxGeometry>
        </mxCell>
        <mxCell id="ViYZggs9jCBp6FODxLy4-3" value="" style="rounded=1;whiteSpace=wrap;html=1;dashed=1;fillColor=#d5e8d4;strokeColor=#82b366;" vertex="1" parent="1">
          <mxGeometry x="140" y="160" width="260" height="260" as="geometry" />
        </mxCell>
        <mxCell id="ViYZggs9jCBp6FODxLy4-4" value="" style="edgeStyle=orthogonalEdgeStyle;rounded=0;orthogonalLoop=1;jettySize=auto;html=1;startArrow=classic;startFill=1;" edge="1" parent="1" source="ViYZggs9jCBp6FODxLy4-5" target="ViYZggs9jCBp6FODxLy4-6">
          <mxGeometry relative="1" as="geometry" />
        </mxCell>
        <mxCell id="ViYZggs9jCBp6FODxLy4-5" value="&lt;font style=&quot;font-size: 31px&quot;&gt;EMQ&lt;/font&gt;" style="shape=hexagon;perimeter=hexagonPerimeter2;whiteSpace=wrap;html=1;fillColor=#dae8fc;strokeColor=#6c8ebf;size=0.25555555555555554;" vertex="1" parent="1">
          <mxGeometry x="180" y="200" width="180" height="100" as="geometry" />
        </mxCell>
        <mxCell id="ViYZggs9jCBp6FODxLy4-6" value="Shadow Plugin" style="ellipse;whiteSpace=wrap;html=1;fillColor=#dae8fc;strokeColor=#6c8ebf;" vertex="1" parent="1">
          <mxGeometry x="225" y="330" width="90" height="50" as="geometry" />
        </mxCell>
        <mxCell id="ViYZggs9jCBp6FODxLy4-7" value="Riak" style="shape=cylinder;whiteSpace=wrap;html=1;boundedLbl=1;backgroundOutline=1;fillColor=#e1d5e7;strokeColor=#9673a6;" vertex="1" parent="1">
          <mxGeometry x="180" y="520" width="65" height="70" as="geometry" />
        </mxCell>
        <mxCell id="ViYZggs9jCBp6FODxLy4-8" value="" style="edgeStyle=orthogonalEdgeStyle;rounded=0;orthogonalLoop=1;jettySize=auto;html=1;startArrow=classic;startFill=1;entryX=1;entryY=0.25;entryDx=0;entryDy=0;" edge="1" parent="1" source="ViYZggs9jCBp6FODxLy4-9" target="ViYZggs9jCBp6FODxLy4-3">
          <mxGeometry relative="1" as="geometry">
            <mxPoint x="480" y="220" as="targetPoint" />
            <Array as="points">
              <mxPoint x="490" y="225" />
              <mxPoint x="490" y="225" />
            </Array>
          </mxGeometry>
        </mxCell>
        <mxCell id="ViYZggs9jCBp6FODxLy4-9" value="Devices" style="ellipse;whiteSpace=wrap;html=1;aspect=fixed;fillColor=#f5f5f5;strokeColor=#666666;fontColor=#333333;" vertex="1" parent="1">
          <mxGeometry x="550" y="190" width="80" height="80" as="geometry" />
        </mxCell>
        <mxCell id="ViYZggs9jCBp6FODxLy4-10" value="" style="edgeStyle=orthogonalEdgeStyle;rounded=0;orthogonalLoop=1;jettySize=auto;html=1;startArrow=classic;startFill=1;entryX=1;entryY=0.75;entryDx=0;entryDy=0;" edge="1" parent="1" source="ViYZggs9jCBp6FODxLy4-11" target="ViYZggs9jCBp6FODxLy4-3">
          <mxGeometry relative="1" as="geometry">
            <mxPoint x="430" y="355" as="targetPoint" />
          </mxGeometry>
        </mxCell>
        <mxCell id="ViYZggs9jCBp6FODxLy4-11" value="Web/App" style="ellipse;whiteSpace=wrap;html=1;aspect=fixed;fillColor=#f5f5f5;strokeColor=#666666;fontColor=#333333;" vertex="1" parent="1">
          <mxGeometry x="550" y="315" width="80" height="80" as="geometry" />
        </mxCell>
        <mxCell id="ViYZggs9jCBp6FODxLy4-12" value="MQTT PROTOCOL" style="text;html=1;align=center;verticalAlign=middle;resizable=0;points=[];;autosize=1;" vertex="1" parent="1">
          <mxGeometry x="420" y="200" width="120" height="20" as="geometry" />
        </mxCell>
        <mxCell id="ViYZggs9jCBp6FODxLy4-13" value="HTTPS PROTOCOL" style="text;html=1;align=center;verticalAlign=middle;resizable=0;points=[];;autosize=1;" vertex="1" parent="1">
          <mxGeometry x="415" y="330" width="130" height="20" as="geometry" />
        </mxCell>
        <mxCell id="ViYZggs9jCBp6FODxLy4-14" value="Riak" style="shape=cylinder;whiteSpace=wrap;html=1;boundedLbl=1;backgroundOutline=1;fillColor=#e1d5e7;strokeColor=#9673a6;" vertex="1" parent="1">
          <mxGeometry x="310" y="520" width="65" height="70" as="geometry" />
        </mxCell>
        <mxCell id="ViYZggs9jCBp6FODxLy4-15" value="..." style="text;html=1;align=center;verticalAlign=middle;resizable=0;points=[];;autosize=1;" vertex="1" parent="1">
          <mxGeometry x="269" y="550" width="30" height="20" as="geometry" />
        </mxCell>
      </root>
    </mxGraphModel>
  </diagram>
</mxfile>
